<?xml version="1.0" standalone="no"?>
<!DOCTYPE svg PUBLIC "-//W3C//DTD SVG 20010904//EN"
 "http://www.w3.org/TR/2001/REC-SVG-20010904/DTD/svg10.dtd">
<svg version="1.0" xmlns="http://www.w3.org/2000/svg"
 width="16.000000pt" height="16.000000pt" viewBox="0 0 16.000000 16.000000"
 preserveAspectRatio="xMidYMid meet">
<metadata>
Created by potrace 1.11, written by Peter Selinger 2001-2013
</metadata>
<g transform="translate(0.000000,16.000000) scale(0.000652,-0.000652)"
fill="#000000" stroke="none">
<path d="M14957 23684 c-1 -1 -51 -5 -112 -8 -162 -9 -304 -21 -385 -31 -19
-3 -55 -7 -80 -10 -44 -5 -98 -13 -150 -20 -43 -7 -264 -44 -290 -50 -38 -7
-132 -26 -161 -31 -14 -3 -97 -23 -185 -44 -87 -22 -169 -43 -181 -45 -137
-31 -648 -203 -790 -266 -23 -11 -45 -19 -48 -19 -4 0 -23 -7 -43 -16 -21 -9
-46 -20 -57 -25 -11 -4 -55 -24 -98 -44 -43 -19 -81 -35 -83 -35 -12 0 -442
-215 -564 -283 -431 -237 -858 -518 -1330 -876 -157 -118 -600 -469 -693 -549
-108 -92 -154 -130 -206 -172 -31 -25 -69 -57 -86 -72 -16 -14 -86 -74 -155
-133 -146 -125 -221 -190 -260 -225 -15 -14 -56 -50 -91 -80 -35 -30 -70 -62
-79 -70 -9 -8 -54 -49 -101 -90 -46 -41 -89 -79 -95 -85 -6 -5 -46 -41 -89
-80 -43 -38 -90 -81 -105 -95 -15 -14 -43 -38 -61 -55 -32 -28 -378 -346 -425
-390 -73 -69 -153 -142 -170 -158 l-21 -17 0 1842 c0 1602 -3 1932 -18 2008
-23 117 -52 160 -122 184 -67 23 -101 20 -216 -18 -56 -18 -426 -140 -822
-271 -396 -130 -846 -279 -1000 -330 -154 -51 -442 -145 -640 -210 -198 -64
-477 -155 -620 -202 -143 -47 -343 -112 -445 -145 -102 -33 -255 -82 -340
-110 -85 -28 -186 -60 -225 -73 -38 -12 -126 -41 -195 -63 -133 -43 -621 -200
-805 -259 -60 -19 -130 -42 -155 -50 -25 -8 -49 -16 -55 -17 -9 -2 -239 -75
-405 -129 -36 -12 -67 -22 -70 -22 -10 -2 -245 -76 -270 -85 -14 -5 -86 -28
-160 -50 -74 -23 -169 -52 -210 -66 -106 -33 -427 -130 -475 -143 l-40 -10 2
-423 c1 -233 2 -426 2 -430 1 -5 16 -6 33 -3 18 2 85 11 148 20 63 9 126 18
140 20 14 2 72 9 129 15 57 6 118 13 135 16 244 33 831 21 1010 -21 12 -3 35
-7 51 -9 166 -20 451 -113 625 -203 313 -165 555 -424 693 -743 41 -95 110
-339 132 -465 3 -16 8 -37 10 -45 2 -8 7 -30 10 -47 3 -18 7 -46 10 -63 14
-84 16 -100 34 -245 10 -77 16 -133 26 -232 4 -42 7 -87 20 -288 15 -218 17
-1338 18 -6905 0 -5649 -3 -6693 -18 -6915 -2 -27 -6 -95 -10 -150 -3 -55 -8
-111 -9 -125 -2 -14 -7 -61 -10 -105 -4 -44 -9 -91 -11 -105 -2 -14 -6 -47
-10 -75 -14 -118 -18 -148 -46 -305 -27 -157 -25 -147 -43 -221 -8 -37 -17
-79 -20 -94 -3 -14 -17 -68 -32 -118 -163 -561 -351 -845 -734 -1109 -68 -46
-262 -158 -276 -158 -4 0 -15 -6 -23 -14 -41 -35 -547 -228 -689 -262 -21 -6
-25 -7 -87 -26 -63 -19 -384 -95 -445 -104 -19 -3 -37 -7 -40 -9 -3 -2 -26 -6
-50 -10 -25 -3 -53 -8 -63 -11 -10 -3 -32 -7 -50 -10 -18 -2 -43 -6 -57 -9
-29 -5 -84 -15 -120 -20 -14 -2 -43 -6 -65 -10 -58 -9 -84 -13 -140 -20 -27
-4 -57 -9 -65 -11 -13 -3 -15 -50 -15 -344 l0 -340 30 -1 c38 0 10591 0 10626
0 l26 1 -1 342 -1 343 -45 1 c-66 2 -308 15 -360 19 -40 3 -96 8 -225 21 -47
4 -129 14 -165 19 -168 24 -297 44 -345 55 -22 5 -55 11 -72 15 -18 3 -63 12
-100 21 -38 9 -75 17 -83 19 -115 23 -431 128 -562 186 -471 207 -739 441
-941 819 -135 253 -234 577 -288 940 -5 36 -11 76 -14 90 -2 14 -6 54 -10 90
-4 36 -8 76 -10 90 -2 14 -7 75 -10 135 -4 61 -9 130 -11 155 -2 25 -5 3188
-5 7030 l-1 6985 65 65 c124 125 452 439 626 600 63 58 126 116 140 130 15 14
47 43 72 64 24 21 67 60 94 85 28 26 100 89 160 141 61 52 112 97 115 100 3 3
46 39 95 80 50 41 95 80 101 85 11 10 25 21 149 120 39 31 79 63 89 72 56 46
304 229 386 285 412 283 939 557 1378 717 105 38 282 97 320 107 9 2 75 19
146 38 70 19 144 38 163 41 20 3 38 7 42 9 3 2 22 7 41 10 19 3 71 12 115 20
442 83 978 90 1490 21 48 -7 60 -9 115 -19 14 -3 41 -7 60 -10 19 -3 68 -12
108 -21 478 -100 882 -280 1222 -543 119 -92 331 -308 420 -427 41 -55 78
-101 83 -103 4 -2 7 -7 7 -12 0 -4 17 -34 39 -66 68 -103 188 -329 276 -519
73 -157 243 -604 235 -617 -1 -2 5 -21 14 -43 45 -117 154 -554 192 -775 16
-89 32 -185 39 -235 4 -22 8 -52 11 -66 2 -15 6 -47 9 -70 3 -24 8 -62 11 -84
9 -75 15 -122 28 -255 3 -25 8 -83 11 -130 4 -47 8 -105 10 -130 2 -25 7 -110
12 -190 10 -192 10 -11291 0 -11535 -5 -104 -10 -208 -12 -230 -2 -22 -7 -89
-11 -150 -11 -172 -23 -313 -29 -347 -2 -9 -7 -48 -10 -85 -4 -37 -9 -75 -10
-84 -2 -9 -6 -40 -10 -70 -6 -52 -9 -75 -20 -136 -36 -222 -55 -326 -65 -358
-5 -16 -11 -42 -14 -56 -9 -53 -67 -263 -102 -367 -91 -270 -204 -495 -335
-665 -34 -43 -162 -173 -234 -237 -58 -52 -237 -178 -335 -237 -77 -46 -322
-173 -335 -173 -3 0 -24 -9 -48 -19 -167 -77 -451 -174 -692 -236 -105 -27
-375 -89 -435 -99 -19 -3 -46 -8 -60 -11 -14 -3 -38 -7 -55 -10 -16 -3 -41 -7
-55 -10 -14 -3 -40 -7 -57 -10 -18 -3 -45 -7 -60 -10 -16 -2 -62 -9 -103 -15
-41 -6 -82 -13 -90 -15 -13 -4 -15 -50 -15 -345 0 -333 0 -340 20 -341 177 -4
10408 0 10413 5 8 8 10 675 2 677 -3 1 -32 3 -65 4 -105 4 -329 16 -360 20
-28 3 -98 11 -190 20 -42 4 -224 31 -261 39 -12 2 -37 7 -55 10 -19 3 -65 12
-104 21 -38 9 -77 18 -85 20 -111 23 -354 103 -480 157 -411 179 -713 427
-934 764 -58 90 -160 279 -193 360 -7 16 -20 49 -31 74 -38 91 -119 339 -137
420 -2 8 -11 47 -20 85 -9 39 -19 85 -21 104 -3 19 -6 37 -9 41 -2 3 -13 65
-25 136 -28 180 -29 181 -35 254 -3 36 -8 74 -10 85 -2 11 -7 63 -10 115 -4
52 -9 106 -13 120 -6 25 -9 1750 -15 8735 -2 2096 -6 3837 -10 3870 -3 33 -8
119 -12 190 -3 72 -8 146 -10 165 -1 19 -6 81 -10 137 -3 56 -8 113 -10 125
-2 13 -6 61 -10 108 -3 47 -8 99 -10 115 -2 17 -7 57 -10 90 -3 33 -8 69 -10
80 -2 11 -7 45 -10 75 -3 30 -7 66 -9 80 -2 14 -7 48 -11 75 -11 82 -16 117
-27 185 -5 36 -11 76 -13 90 -2 14 -13 77 -25 140 -11 63 -23 126 -25 140 -4
26 -24 124 -40 200 -3 14 -7 35 -10 48 -2 13 -6 31 -9 40 -3 9 -8 31 -10 47
-22 126 -182 699 -226 810 -4 11 -22 63 -39 115 -18 52 -36 104 -41 115 -4 11
-21 54 -35 95 -15 41 -33 89 -41 105 -7 17 -32 75 -55 130 -71 170 -215 470
-275 575 -14 25 -49 86 -77 135 -55 99 -77 134 -190 308 -104 159 -327 458
-391 523 -6 6 -31 35 -56 65 -110 132 -457 468 -615 595 -33 26 -62 51 -65 54
-13 16 -248 186 -355 257 -214 143 -546 328 -755 421 -382 169 -755 289 -1110
357 -90 17 -148 28 -165 30 -63 9 -112 16 -125 20 -8 2 -42 6 -75 10 -33 3
-76 8 -95 10 -45 5 -134 13 -230 21 -68 6 -628 13 -633 8z"/>
</g>
</svg>
