<?xml version="1.0" encoding="utf-8"?>
<!-- Generator: Adobe Illustrator 21.0.2, SVG Export Plug-In . SVG Version: 6.00 Build 0)  -->
<!DOCTYPE svg PUBLIC "-//W3C//DTD SVG 1.1//EN" "http://www.w3.org/Graphics/SVG/1.1/DTD/svg11.dtd">
<svg version="1.1" id="Layer_1" xmlns="http://www.w3.org/2000/svg" xmlns:xlink="http://www.w3.org/1999/xlink" x="0px" y="0px"
	 viewBox="0 0 1920 1080" style="enable-background:new 0 0 1920 1080;" xml:space="preserve">
<style type="text/css">
	.st0{fill:#AC872E;}
	.st1{fill:#997717;}
</style>
<g>
	<path class="st0" d="M208.9,657.1c13.3-1.7,22.7-5,28.1-10c5.4-5,8-16.1,8-33.4V470.4c0-11.9-1.1-20.3-3.4-25.2
		c-3.6-7.1-10.9-10.6-22-10.6c-1.7,0-3.4,0.1-5.2,0.3c-1.8,0.2-4,0.5-6.6,0.8v-9.9c7.7-2.3,25.9-8.1,54.7-17.5l26.5-8.7
		c1.3,0,2.1,0.5,2.4,1.4c0.3,0.9,0.4,2.3,0.4,3.9v41.5c17.3-16.2,30.8-27.3,40.5-33.3c14.6-9.2,29.8-13.8,45.6-13.8
		c12.8,0,24.4,3.7,34.9,11c20.3,14.3,30.4,39.8,30.4,76.4v131.7c0,13.5,2.7,23.3,8.1,29.3c5.4,6,14.5,9.1,27.1,9.3v7.9H358.1v-7.9
		c13.7-1.9,23.3-5.7,28.8-11.4c5.5-5.7,8.2-18.2,8.2-37.4V487.9c0-16.2-3-29.6-9-40.2c-6-10.6-17-15.9-33.1-15.9
		c-11,0-22.2,3.8-33.7,11.3c-6.4,4.3-14.6,11.5-24.7,21.4v157.9c0,13.5,3,22.6,9,27.2c6,4.6,15.5,7.1,28.5,7.5v7.9H208.9V657.1z"/>
	<path class="st0" d="M587.4,420.1v19.1H534l-0.5,152.9c0,13.5,1.1,23.6,3.4,30.5c4.2,12.2,12.4,18.3,24.6,18.3
		c6.3,0,11.7-1.5,16.4-4.5c4.6-3,9.9-7.8,15.8-14.3l6.8,5.8l-5.8,8c-9.1,12.4-18.7,21.2-28.8,26.3c-10.1,5.1-19.9,7.7-29.3,7.7
		c-20.6,0-34.6-9.3-41.9-27.9c-4-10.1-6-24.1-6-41.9V439.2h-28.5c-0.9-0.5-1.5-1.1-2-1.6c-0.4-0.5-0.7-1.2-0.7-2.1
		c0-1.8,0.4-3.1,1.2-4.1c0.8-1,3.3-3.2,7.5-6.8c12-10.1,20.7-18.3,26.1-24.6c5.3-6.3,17.8-22.9,37.6-49.8c2.3,0,3.6,0.2,4.1,0.5
		c0.4,0.4,0.7,1.7,0.7,4v65.3H587.4z"/>
	<path class="st0" d="M729.7,420.1v19.1h-54.2l-0.5,153c0,13.5,1.2,23.6,3.5,30.5c4.2,12.2,12.6,18.3,25,18.3
		c6.4,0,11.9-1.5,16.6-4.5c4.7-3,10-7.8,16.1-14.3l6.9,5.8l-5.8,8c-9.2,12.4-18.9,21.2-29.2,26.3c-10.3,5.1-20.2,7.7-29.7,7.7
		c-20.9,0-35.1-9.3-42.5-27.9c-4.1-10.1-6.1-24.1-6.1-42V439.3h-28.9c-0.9-0.5-1.5-1.1-2-1.6c-0.4-0.5-0.7-1.2-0.7-2.1
		c0-1.8,0.4-3.1,1.2-4.1c0.8-1,3.3-3.2,7.6-6.8c12.2-10.1,21-18.3,26.4-24.6c5.4-6.3,18.1-22.9,38.1-49.8c2.3,0,3.7,0.2,4.1,0.5
		c0.4,0.4,0.7,1.7,0.7,4v65.3H729.7z"/>
	<path class="st0" d="M738.3,657.1c17.5-1.7,29.3-5.2,35.5-10.6s9.3-15.8,9.3-31.4V339.5c0-12.4-1-21-3.1-25.7
		c-3.8-7.9-11.4-11.8-22.8-11.8c-2.6,0-5.5,0.3-8.6,0.8c-3.1,0.6-7,1.4-11.7,2.5v-9.3c25.4-6.8,55.9-15.8,91.7-27.1
		c1.3,0,2.1,0.6,2.4,1.7c0.3,1.1,0.4,3.6,0.4,7.3v338.2c0,16.4,2.8,26.9,8.5,31.7c5.6,4.8,17.3,7.9,35,9.2v7.9H738.3V657.1z"/>
	<path class="st0" d="M1024.3,407.5c7.5,3.9,14.8,9.4,21.7,16.4v-89.7c0-11.5-1.3-19.4-3.8-23.7c-2.5-4.3-8.6-6.5-18.2-6.5
		c-2.3,0-4.2,0.1-5.9,0.3c-1.7,0.2-5.5,0.6-11.3,1.1v-9.3l23.1-5.9c8.5-2.3,16.9-4.6,25.4-7.1c8.5-2.4,15.9-4.8,22.3-7
		c3-0.9,8-2.7,14.9-5.4l1.7,0.6l-0.6,29.6c-0.2,10.7-0.4,21.8-0.6,33.1c-0.2,11.4-0.3,22.6-0.3,33.7l-0.6,230.4
		c0,12.2,1.5,20.8,4.5,25.7c3,4.9,11,7.3,24,7.3c2.1,0,4.1,0,6.2-0.1c2.1-0.1,4.1-0.3,6.2-0.7v9.3c-1.1,0.4-14.8,5.1-40.9,14.1
		l-44.3,16.6l-2-2.5v-34.7c-10.5,11.5-19.7,19.6-27.4,24.5c-13.7,8.5-29.6,12.7-47.7,12.7c-32,0-57.9-12.4-77.7-37.1
		c-19.8-24.7-29.8-53.4-29.8-85.9c0-40.8,11.9-75.8,35.7-105.1c23.8-29.2,52.9-43.9,87.3-43.9
		C1000.3,398.5,1012.9,401.5,1024.3,407.5z M1032.5,626.9c9-8.6,13.5-16.8,13.5-24.5v-121c0-24.4-6.5-41.7-19.6-51.8
		c-13.1-10.1-25.8-15.1-38.2-15.1c-23.7,0-42.1,10.5-55.3,31.5c-13.2,21-19.7,46.8-19.7,77.4c0,30.3,7,57.3,21,81
		c14,23.7,34.9,35.5,62.8,35.5C1011.6,639.9,1023.5,635.6,1032.5,626.9z"/>
	<path class="st0" d="M1468,421v19.1h-54.2l-0.5,153c0,13.5,1.2,23.6,3.5,30.5c4.2,12.2,12.6,18.3,25,18.3c6.4,0,11.9-1.5,16.6-4.5
		c4.7-3,10-7.8,16.1-14.3l6.9,5.8l-5.8,8c-9.2,12.4-18.9,21.2-29.2,26.3c-10.3,5.1-20.2,7.7-29.7,7.7c-20.9,0-35.1-9.3-42.5-27.9
		c-4.1-10.1-6.1-24.1-6.1-42V440.1h-28.9c-0.9-0.5-1.5-1.1-2-1.6c-0.4-0.5-0.7-1.2-0.7-2.1c0-1.8,0.4-3.1,1.2-4.1
		c0.8-1,3.3-3.2,7.6-6.8c12.2-10.1,21-18.3,26.4-24.6c5.4-6.3,18.1-22.9,38.1-49.8c2.3,0,3.7,0.2,4.1,0.5c0.4,0.4,0.7,1.7,0.7,4V421
		H1468z"/>
	<path class="st0" d="M1214.1,657.9c17.5-1.7,29.3-5.2,35.5-10.6s9.3-15.8,9.3-31.5V340.4c0-12.4-1-21-3.1-25.7
		c-3.8-7.9-11.4-11.8-22.8-11.8c-2.6,0-5.5,0.3-8.6,0.8c-3.1,0.6-7,1.4-11.7,2.5v-9.3c25.4-6.8,55.9-15.8,91.7-27.1
		c1.3,0,2.1,0.6,2.4,1.7c0.3,1.1,0.4,3.6,0.4,7.3V617c0,16.4,2.8,26.9,8.5,31.7c5.6,4.8,17.3,7.9,35,9.2v7.9h-136.5V657.9z"/>
	<path class="st0" d="M1638.9,408.3c7.5,3.9,14.8,9.4,21.7,16.4V335c0-11.5-1.3-19.4-3.8-23.7c-2.5-4.3-8.6-6.5-18.2-6.5
		c-2.3,0-4.2,0.1-5.9,0.3c-1.7,0.2-5.5,0.6-11.3,1.1v-9.3l23.1-5.9c8.5-2.3,16.9-4.6,25.4-7c8.5-2.4,15.9-4.8,22.3-7.1
		c3-0.9,8-2.7,14.9-5.4l1.7,0.6l-0.6,29.6c-0.2,10.7-0.4,21.8-0.6,33.1c-0.2,11.4-0.3,22.6-0.3,33.7l-0.6,230.4
		c0,12.2,1.5,20.8,4.5,25.7c3,4.9,11,7.3,24,7.3c2.1,0,4.1,0,6.2-0.1c2.1-0.1,4.1-0.3,6.2-0.7v9.3c-1.1,0.4-14.8,5.1-40.9,14.1
		l-44.3,16.6l-2-2.5V634c-10.5,11.5-19.7,19.7-27.4,24.5c-13.7,8.5-29.6,12.7-47.7,12.7c-32,0-57.9-12.4-77.7-37.1
		c-19.8-24.7-29.8-53.4-29.8-85.9c0-40.8,11.9-75.8,35.7-105.1c23.8-29.2,52.9-43.9,87.3-43.9
		C1614.8,399.3,1627.4,402.3,1638.9,408.3z M1647,627.8c9-8.6,13.5-16.8,13.5-24.5v-121c0-24.4-6.5-41.7-19.6-51.8
		c-13.1-10.1-25.8-15.1-38.2-15.1c-23.7,0-42.1,10.5-55.3,31.4c-13.2,21-19.7,46.8-19.7,77.4c0,30.3,7,57.3,21,80.9
		c14,23.7,34.9,35.5,62.8,35.5C1626.2,640.7,1638,636.4,1647,627.8z"/>
</g>
<circle class="st0" cx="1173.7" cy="643.1" r="20"/>
<path class="st1" d="M1683.8,755.6h-457.6c-1,0-1.9-0.8-1.9-1.9s0.8-1.9,1.9-1.9h457.6c1,0,1.9,0.8,1.9,1.9
	S1684.8,755.6,1683.8,755.6z"/>
<g>
	<path class="st0" d="M793,733v1.5c-1.7,0.2-2.8,0.4-3.5,0.8c-0.7,0.3-1,1-1,2.1c0,0.5,0.1,1,0.2,1.5c0.1,0.5,0.4,1.1,0.7,2l10,23.9
		l8.5-21.1c0.4-1,0.8-2.1,1.2-3.3c0.4-1.1,0.5-2,0.5-2.6c0-1.2-0.6-2.1-1.8-2.7c-0.7-0.3-1.7-0.5-2.9-0.6V733h13.5v1.5
		c-1.6,0.1-2.7,0.6-3.4,1.5c-0.7,0.9-1.7,3-3,6.3l-13.8,34.3c-0.3,0.6-0.5,1-0.6,1.2c-0.2,0.2-0.4,0.3-0.7,0.3
		c-0.3,0-0.6-0.2-0.8-0.5c-0.2-0.4-0.5-0.8-0.7-1.4L781,741.4c-1.2-2.8-2.4-4.7-3.8-5.8c-0.8-0.6-2-1-3.5-1.1V733H793z"/>
	<path class="st0" d="M820.3,775.9c3.4-0.3,5.5-0.9,6.4-1.7c0.9-0.8,1.3-3.1,1.3-6.8v-22.7c0-2.1-0.1-3.5-0.4-4.3
		c-0.5-1.3-1.5-1.9-3-1.9c-0.3,0-0.7,0-1,0.1c-0.3,0.1-1.3,0.3-2.9,0.8v-1.5l2-0.7c5.6-1.8,9.4-3.2,11.6-4.1
		c0.9-0.4,1.5-0.6,1.7-0.6c0.1,0.2,0.1,0.5,0.1,0.7v34.2c0,3.6,0.4,5.9,1.3,6.8c0.9,0.9,2.8,1.5,5.9,1.8v1.3h-23.1V775.9z
		 M827.8,712.3c1-1,2.1-1.5,3.5-1.5c1.4,0,2.5,0.5,3.5,1.4c1,1,1.5,2.1,1.5,3.5c0,1.4-0.5,2.5-1.5,3.5c-1,1-2.1,1.4-3.5,1.4
		c-1.4,0-2.6-0.5-3.5-1.4c-1-1-1.4-2.1-1.4-3.5C826.4,714.4,826.9,713.3,827.8,712.3z"/>
	<path class="st0" d="M845,775.9c3-0.3,5-0.9,6-1.8c1-0.9,1.6-2.7,1.6-5.3v-46.5c0-2.1-0.2-3.5-0.5-4.3c-0.6-1.3-1.9-2-3.9-2
		c-0.4,0-0.9,0.1-1.5,0.1c-0.5,0.1-1.2,0.2-2,0.4V715c4.3-1.1,9.4-2.7,15.5-4.6c0.2,0,0.4,0.1,0.4,0.3c0.1,0.2,0.1,0.6,0.1,1.2V769
		c0,2.8,0.5,4.5,1.4,5.4c1,0.8,2.9,1.3,5.9,1.5v1.3h-23V775.9z"/>
	<path class="st0" d="M869.7,775.9c3-0.3,5-0.9,6-1.8c1-0.9,1.6-2.7,1.6-5.3v-46.5c0-2.1-0.2-3.5-0.5-4.3c-0.6-1.3-1.9-2-3.9-2
		c-0.4,0-0.9,0.1-1.5,0.1c-0.5,0.1-1.2,0.2-2,0.4V715c4.3-1.1,9.4-2.7,15.5-4.6c0.2,0,0.4,0.1,0.4,0.3c0.1,0.2,0.1,0.6,0.1,1.2V769
		c0,2.8,0.5,4.5,1.4,5.4c1,0.8,2.9,1.3,5.9,1.5v1.3h-23V775.9z"/>
	<path class="st0" d="M926.4,737.3c3.4,3.1,5,7.5,5,13.2h-30.2c0.3,7.3,2,12.7,5,16.1c3,3.4,6.6,5,10.7,5c3.3,0,6.1-0.9,8.4-2.6
		c2.3-1.7,4.4-4.2,6.3-7.4l1.7,0.6c-1.3,4-3.7,7.8-7.3,11.2c-3.6,3.4-7.9,5.1-13.1,5.1c-6,0-10.6-2.3-13.8-6.8
		c-3.3-4.5-4.9-9.7-4.9-15.6c0-6.4,1.9-11.9,5.7-16.5c3.8-4.6,8.7-7,14.8-7C919.2,732.6,923.1,734.2,926.4,737.3z M903.6,740.9
		c-1,1.7-1.7,3.9-2.2,6.5h20.1c-0.3-3.2-1-5.5-1.8-7.1c-1.6-2.8-4.2-4.2-7.8-4.2C908.3,736.1,905.5,737.7,903.6,740.9z"/>
	<path class="st0" d="M956.7,776c2.5-0.2,4.1-0.6,5-1.2c1.3-0.9,1.9-2.8,1.9-5.5v-24.6c0-2.3-0.3-3.9-0.9-4.6
		c-0.6-0.7-1.6-1.1-3.1-1.1c-0.7,0-1.2,0-1.5,0.1c-0.3,0.1-0.7,0.2-1.2,0.3v-1.7l3.4-1.1c1.2-0.4,3.3-1.2,6.1-2.2
		c2.8-1.1,4.3-1.6,4.5-1.6s0.3,0.1,0.3,0.2c0,0.2,0,0.5,0,0.9v6.4c3.1-2.9,5.9-4.8,8.1-5.9c2.3-1.1,4.6-1.6,7-1.6
		c3.3,0,5.9,1.1,7.8,3.3c1,1.2,1.9,2.8,2.5,4.9c2.3-2.4,4.4-4.1,6.1-5.3c3-2,6.1-3,9.2-3c5.1,0,8.5,2.1,10.2,6.2
		c1,2.4,1.5,6.1,1.5,11.1v19.8c0,2.3,0.5,3.8,1.5,4.6c1,0.8,2.8,1.3,5.4,1.6v1.2h-21.5v-1.3c2.8-0.3,4.6-0.8,5.5-1.7
		c0.9-0.9,1.3-2.6,1.3-5.2v-20.5c0-3.1-0.3-5.4-1-6.8c-1.2-2.6-3.5-3.9-6.9-3.9c-2.1,0-4.1,0.7-6.1,2.1c-1.2,0.8-2.6,2.1-4.3,3.8
		V768c0,2.6,0.5,4.5,1.4,5.9c0.9,1.3,2.8,2.1,5.7,2.1v1.2h-21.9V776c3-0.4,4.9-1.1,5.8-2.2c0.8-1.1,1.2-3.7,1.2-8v-13.3
		c0-4.9-0.3-8.2-1-10.1c-1-3.1-3.3-4.7-6.7-4.7c-1.9,0-3.8,0.5-5.7,1.6c-1.9,1.1-3.5,2.5-5,4.2v26c0,2.4,0.4,4.1,1.3,5
		c0.8,0.9,2.7,1.4,5.5,1.4v1.2h-21.7V776z"/>
	<path class="st0" d="M1039,756.3c2.9-1.9,8.7-4.5,17.5-7.8v-4.1c0-3.2-0.3-5.5-1-6.8c-1.1-2.1-3.3-3.2-6.7-3.2
		c-1.6,0-3.2,0.4-4.6,1.2c-1.5,0.9-2.2,2-2.2,3.5c0,0.4,0.1,1,0.2,1.9c0.2,0.9,0.2,1.5,0.2,1.7c0,1.8-0.6,3-1.8,3.7
		c-0.7,0.4-1.5,0.6-2.4,0.6c-1.4,0-2.5-0.5-3.3-1.4c-0.8-0.9-1.1-2-1.1-3.1c0-2.2,1.4-4.5,4.1-7c2.7-2.4,6.8-3.6,12.1-3.6
		c6.2,0,10.3,2,12.5,6c1.2,2.2,1.8,5.4,1.8,9.6v19.1c0,1.8,0.1,3.1,0.4,3.8c0.4,1.2,1.3,1.9,2.6,1.9c0.7,0,1.3-0.1,1.8-0.3
		c0.5-0.2,1.3-0.8,2.5-1.6v2.5c-1,1.2-2.1,2.3-3.3,3c-1.8,1.2-3.6,1.8-5.4,1.8c-2.2,0-3.7-0.7-4.7-2.1c-1-1.4-1.5-3.1-1.6-5
		c-2.4,2.1-4.5,3.7-6.2,4.7c-2.9,1.7-5.6,2.6-8.2,2.6c-2.7,0-5.1-1-7.1-2.9c-2-1.9-3-4.4-3-7.3
		C1032.1,763.2,1034.4,759.4,1039,756.3z M1056.5,750.9c-3.7,1.2-6.7,2.5-9,4c-4.6,2.8-6.9,6-6.9,9.6c0,2.9,1,5,2.9,6.4
		c1.2,0.9,2.6,1.3,4.1,1.3c2.1,0,4.1-0.6,6-1.8c1.9-1.2,2.9-2.7,2.9-4.5V750.9z"/>
	<path class="st0" d="M1069.8,775.7c2.9-0.3,4.9-0.8,5.8-1.5c1-0.8,1.4-2.4,1.4-5v-21.5c0-3.1-0.3-5.4-0.9-6.7c-0.6-1.4-1.7-2-3.2-2
		c-0.3,0-0.7,0-1.3,0.1c-0.5,0.1-1.1,0.2-1.6,0.3v-1.6c1.8-0.6,3.7-1.3,5.6-1.9c1.9-0.7,3.2-1.1,3.9-1.4c1.6-0.6,3.2-1.3,4.9-2.1
		c0.2,0,0.4,0.1,0.4,0.2c0.1,0.2,0.1,0.5,0.1,1v7.8c2-2.8,4-5,5.9-6.6c1.9-1.6,3.9-2.4,5.9-2.4c1.6,0,2.9,0.5,4,1.5
		c1,1,1.5,2.2,1.5,3.6c0,1.3-0.4,2.4-1.2,3.3c-0.8,0.9-1.8,1.3-2.9,1.3c-1.2,0-2.4-0.6-3.6-1.7c-1.2-1.1-2.2-1.7-2.9-1.7
		c-1.1,0-2.5,0.9-4.1,2.7c-1.6,1.8-2.4,3.6-2.4,5.5v21.5c0,2.7,0.6,4.6,1.9,5.7c1.3,1.1,3.4,1.6,6.3,1.5v1.6h-23.5V775.7z"/>
	<path class="st0" d="M1101.3,775.9c3.4-0.3,5.5-0.9,6.4-1.7c0.9-0.8,1.3-3.1,1.3-6.8v-22.7c0-2.1-0.1-3.5-0.4-4.3
		c-0.5-1.3-1.5-1.9-3-1.9c-0.3,0-0.7,0-1,0.1c-0.3,0.1-1.3,0.3-2.9,0.8v-1.5l2-0.7c5.6-1.8,9.4-3.2,11.6-4.1
		c0.9-0.4,1.5-0.6,1.7-0.6c0.1,0.2,0.1,0.5,0.1,0.7v34.2c0,3.6,0.4,5.9,1.3,6.8c0.9,0.9,2.8,1.5,5.9,1.8v1.3h-23.1V775.9z
		 M1108.9,712.3c1-1,2.1-1.5,3.5-1.5c1.4,0,2.5,0.5,3.5,1.4c1,1,1.5,2.1,1.5,3.5c0,1.4-0.5,2.5-1.5,3.5c-1,1-2.1,1.4-3.5,1.4
		c-1.4,0-2.6-0.5-3.5-1.4c-1-1-1.4-2.1-1.4-3.5C1107.5,714.4,1108,713.3,1108.9,712.3z"/>
	<path class="st0" d="M1158.2,737.3c3.4,3.1,5,7.5,5,13.2H1133c0.3,7.3,2,12.7,5,16.1c3,3.4,6.6,5,10.7,5c3.3,0,6.1-0.9,8.4-2.6
		c2.3-1.7,4.4-4.2,6.3-7.4l1.7,0.6c-1.3,4-3.7,7.8-7.3,11.2c-3.6,3.4-7.9,5.1-13.1,5.1c-6,0-10.6-2.3-13.8-6.8
		c-3.3-4.5-4.9-9.7-4.9-15.6c0-6.4,1.9-11.9,5.7-16.5c3.8-4.6,8.7-7,14.8-7C1150.9,732.6,1154.8,734.2,1158.2,737.3z M1135.4,740.9
		c-1,1.7-1.7,3.9-2.2,6.5h20.1c-0.3-3.2-1-5.5-1.8-7.1c-1.6-2.8-4.2-4.2-7.8-4.2C1140,736.1,1137.3,737.7,1135.4,740.9z"/>
</g>
<path class="st1" d="M716.1,755.6H258.4c-1,0-1.9-0.8-1.9-1.9s0.8-1.9,1.9-1.9h457.6c1,0,1.9,0.8,1.9,1.9S717.1,755.6,716.1,755.6z"
	/>
</svg>
